Coordinates
version=1
nRows=21
nColumns=12
inDegrees=yes

Units are S.I. units (second, meters, Newtons, ...)
Angles are in degrees

endheader
time	SC_y	SC_z	SC_x	AC_y	AC_z	AC_x	GH_y	GH_z	GH_yy	EL_x	PS_y
       0.0              -32.58           22.6           59.9          37.44         -8.488        -0.1307         -90.38          5.173          82.18          128.7          158.8
  0.003113              -32.58           22.6           59.9          37.45         -8.488        -0.1282         -90.34          5.174          82.16          128.7          158.8
  0.006225              -32.58           22.6           59.9          37.45         -8.488        -0.1255          -90.3          5.176          82.14          128.7          158.8
  0.009338              -32.58           22.6           59.9          37.46         -8.488        -0.1226         -90.26          5.177          82.11          128.6          158.7
   0.01245              -32.58           22.6           59.9          37.46         -8.488        -0.1195         -90.21          5.179          82.09          128.6          158.7
   0.01556              -32.58          22.61           59.9          37.47         -8.488        -0.1163         -90.16          5.181          82.06          128.6          158.7
   0.01868              -32.58          22.61           59.9          37.48         -8.489        -0.1128         -90.11          5.183          82.03          128.6          158.7
   0.02179              -32.58          22.61           59.9          37.48         -8.489        -0.1091         -90.05          5.185           82.0          128.6          158.7
    0.0249              -32.58          22.62           59.9          37.49         -8.489        -0.1051         -89.99          5.187          81.96          128.6          158.6
   0.02801              -32.58          22.62           59.9           37.5         -8.489        -0.1008         -89.92           5.19          81.93          128.5          158.6
   0.03113              -32.58          22.62           59.9          37.51         -8.489       -0.09621         -89.85          5.192          81.89          128.5          158.6
   0.03424              -32.58          22.63           59.9          37.52          -8.49       -0.09127         -89.78          5.195          81.85          128.5          158.6
   0.03735              -32.58          22.63          59.91          37.53          -8.49       -0.08594         -89.69          5.198           81.8          128.5          158.6
   0.04046              -32.58          22.63          59.91          37.54          -8.49       -0.08019         -89.61          5.201          81.75          128.4          158.5
   0.04358              -32.58          22.64          59.91          37.55          -8.49       -0.07396         -89.51          5.205           81.7          128.4          158.5
   0.04669              -32.58          22.64          59.91          37.56         -8.491       -0.06721         -89.41          5.209          81.64          128.4          158.5
    0.0498              -32.58          22.65          59.91          37.57         -8.491       -0.05986          -89.3          5.213          81.58          128.3          158.4
   0.05292              -32.58          22.65          59.91          37.59         -8.491       -0.05187         -89.17          5.218          81.51          128.3          158.4
   0.05603              -32.59          22.66          59.91           37.6         -8.492       -0.04314         -89.04          5.223          81.44          128.2          158.3
   0.05914              -32.59          22.67          59.91          37.62         -8.492       -0.03358         -88.89          5.228          81.36          128.2          158.3
   0.06225              -32.59          22.67          59.91          37.64         -8.493       -0.02308         -88.73          5.234          81.27          128.1          158.2
